<svg width="150" height="150" viewBox="0 0 150 150" fill="none" xmlns="http://www.w3.org/2000/svg">
<path d="M58.7156 6.27182C59.5266 5.60151 59.9297 5.2687 60.3 4.98745C68.9953 -1.66411 81.0047 -1.66411 89.7 4.98745C90.0703 5.2687 90.4735 5.60151 91.2844 6.27182C91.6453 6.56713 91.8235 6.71713 92.0016 6.86245C96.0938 10.1156 101.114 11.9625 106.322 12.1266C106.547 12.1313 106.781 12.1359 107.245 12.1406C108.291 12.1546 108.816 12.1594 109.275 12.1828C120.169 12.7406 129.366 20.5406 131.798 31.2797C131.902 31.7344 132 32.2547 132.197 33.2906C132.281 33.7547 132.323 33.9844 132.37 34.2094C133.434 39.3656 136.106 44.0343 139.988 47.5407C140.161 47.6954 140.334 47.85 140.691 48.1547C141.483 48.8438 141.877 49.1907 142.214 49.5094C150.206 57.0047 152.292 68.9578 147.323 78.7641C147.113 79.1813 146.855 79.6407 146.344 80.5594C146.114 80.9719 146.002 81.1782 145.894 81.3797C143.433 86.0157 142.505 91.3313 143.25 96.5391C143.283 96.7688 143.32 96.9985 143.395 97.4625C143.564 98.5079 143.648 99.0282 143.705 99.4922C145.055 110.423 139.05 120.933 129.005 125.217C128.578 125.4 128.086 125.588 127.111 125.963C126.675 126.127 126.455 126.211 126.244 126.295C121.406 128.25 117.319 131.719 114.572 136.191C114.455 136.388 114.338 136.589 114.098 136.992C113.564 137.902 113.297 138.356 113.044 138.75C107.123 147.998 95.8406 152.152 85.4156 148.908C84.975 148.772 84.4781 148.598 83.4938 148.247C83.0531 148.092 82.8328 148.013 82.6172 147.942C77.6719 146.297 72.3281 146.297 67.3828 147.942C67.1672 148.013 66.9469 148.092 66.5063 148.247C65.5219 148.598 65.025 148.772 64.5844 148.908C54.1594 152.152 42.8766 147.998 36.9563 138.75C36.7031 138.356 36.436 137.902 35.9016 136.992C35.6625 136.589 35.5453 136.388 35.4282 136.191C32.6813 131.719 28.5938 128.25 23.7563 126.295C23.5454 126.211 23.325 126.127 22.8891 125.963C21.9141 125.588 21.4219 125.4 20.9954 125.217C10.9501 120.933 4.94538 110.423 6.29538 99.4922C6.35163 99.0282 6.43596 98.5079 6.60471 97.4625C6.67971 96.9985 6.71726 96.7688 6.75007 96.5391C7.49538 91.3313 6.56721 86.0157 4.10629 81.3797C3.99848 81.1782 3.886 80.9719 3.65631 80.5594C3.14537 79.6407 2.88752 79.1813 2.67658 78.7641C-2.29217 68.9578 -0.206218 57.0047 7.78596 49.5094C8.12346 49.1907 8.51721 48.8438 9.3094 48.1547C9.66565 47.85 9.83909 47.6954 10.0125 47.5407C13.8938 44.0343 16.5656 39.3656 17.6297 34.2094C17.6766 33.9844 17.7188 33.7547 17.8031 33.2906C18 32.2547 18.0985 31.7344 18.2016 31.2797C20.6344 20.5406 29.8313 12.7406 40.725 12.1828C41.1844 12.1594 41.7094 12.1546 42.7547 12.1406C43.2188 12.1359 43.4532 12.1313 43.6782 12.1266C48.886 11.9625 53.9063 10.1156 57.9985 6.86245C58.1766 6.71713 58.3547 6.56713 58.7156 6.27182Z" fill="white"/>
</svg>
