<svg width="750" height="750" viewBox="0 0 750 750" fill="none" xmlns="http://www.w3.org/2000/svg">
<rect width="750" height="750" rx="375" fill="url(#paint0_linear_2293_3)"/>
<g filter="url(#filter0_f_2293_3)">
<path d="M392.897 602.4C326.497 602 276.697 585.6 243.497 553.2C210.697 520.8 194.297 468.2 194.297 395.4C194.297 329.4 210.297 277.6 242.297 240C274.297 202 319.497 183 377.897 183C413.897 183 445.297 188.4 472.097 199.2C498.897 210 519.497 225.4 533.897 245.4C548.297 265.4 555.497 289 555.497 316.2C555.497 337.8 550.697 357 541.097 373.8C531.897 390.6 518.097 405.6 499.697 418.8C514.497 421.2 527.297 429.2 538.097 442.8C549.297 456.4 554.897 472.2 554.897 490.2C554.897 509.4 549.697 527.6 539.297 544.8C529.297 561.6 512.097 575.4 487.697 586.2C463.697 597 432.097 602.4 392.897 602.4ZM351.497 378.6C358.697 382.2 367.697 384 378.497 384C391.297 384 402.297 381 411.497 375C421.097 368.6 425.897 359.2 425.897 346.8C425.897 334.8 421.097 325.8 411.497 319.8C402.297 313.4 391.097 310.2 377.897 310.2C367.497 310.2 358.697 312 351.497 315.6C345.897 318 341.697 322.2 338.897 328.2C336.097 334.2 334.697 340.6 334.697 347.4C334.697 354.2 336.097 360.6 338.897 366.6C341.697 372.2 345.897 376.2 351.497 378.6ZM351.497 519C359.097 522.2 368.097 523.8 378.497 523.8C391.297 523.8 402.297 521.2 411.497 516C421.097 510.4 425.897 502.2 425.897 491.4C425.897 481 421.097 473 411.497 467.4C401.897 461.8 390.697 459 377.897 459C367.897 459 359.097 460.6 351.497 463.8C345.897 466.2 341.697 470 338.897 475.2C336.097 480 334.697 485.4 334.697 491.4C334.697 497.4 336.097 503 338.897 508.2C341.697 513 345.897 516.6 351.497 519Z" fill="#0D3348" fill-opacity="0.59"/>
</g>
<path d="M390.414 553.5C335.081 553.167 293.581 539.5 265.914 512.5C238.581 485.5 224.914 441.667 224.914 381C224.914 326 238.247 282.833 264.914 251.5C291.581 219.833 329.247 204 377.914 204C407.914 204 434.081 208.5 456.414 217.5C478.747 226.5 495.914 239.333 507.914 256C519.914 272.667 525.914 292.333 525.914 315C525.914 333 521.914 349 513.914 363C506.247 377 494.747 389.5 479.414 400.5C491.747 402.5 502.414 409.167 511.414 420.5C520.747 431.833 525.414 445 525.414 460C525.414 476 521.081 491.167 512.414 505.5C504.081 519.5 489.747 531 469.414 540C449.414 549 423.081 553.5 390.414 553.5ZM355.914 367C361.914 370 369.414 371.5 378.414 371.5C389.081 371.5 398.247 369 405.914 364C413.914 358.667 417.914 350.833 417.914 340.5C417.914 330.5 413.914 323 405.914 318C398.247 312.667 388.914 310 377.914 310C369.247 310 361.914 311.5 355.914 314.5C351.247 316.5 347.747 320 345.414 325C343.081 330 341.914 335.333 341.914 341C341.914 346.667 343.081 352 345.414 357C347.747 361.667 351.247 365 355.914 367ZM355.914 484C362.247 486.667 369.747 488 378.414 488C389.081 488 398.247 485.833 405.914 481.5C413.914 476.833 417.914 470 417.914 461C417.914 452.333 413.914 445.667 405.914 441C397.914 436.333 388.581 434 377.914 434C369.581 434 362.247 435.333 355.914 438C351.247 440 347.747 443.167 345.414 447.5C343.081 451.5 341.914 456 341.914 461C341.914 466 343.081 470.667 345.414 475C347.747 479 351.247 482 355.914 484Z" fill="#0D3348"/>
<defs>
<filter id="filter0_f_2293_3" x="109.297" y="98" width="531.2" height="589.4" filterUnits="userSpaceOnUse" color-interpolation-filters="sRGB">
<feFlood flood-opacity="0" result="BackgroundImageFix"/>
<feBlend mode="normal" in="SourceGraphic" in2="BackgroundImageFix" result="shape"/>
<feGaussianBlur stdDeviation="42.5" result="effect1_foregroundBlur_2293_3"/>
</filter>
<linearGradient id="paint0_linear_2293_3" x1="375" y1="0" x2="375" y2="750" gradientUnits="userSpaceOnUse">
<stop stop-color="#69D2FD"/>
<stop offset="1" stop-color="#C5C2EA"/>
</linearGradient>
</defs>
</svg>
