<svg width="151" height="30" viewBox="0 0 151 30" fill="none" xmlns="http://www.w3.org/2000/svg">
<rect width="151" height="30" rx="15" fill="#F28E8E"/>
<path d="M42.5827 21H39.4521L44.2223 7.18182H47.9872L52.7507 21H49.62L46.1587 10.3395H46.0508L42.5827 21ZM42.3871 15.5685H49.782V17.8491H42.3871V15.5685ZM60.7259 24.8864V19.3402H60.6381C60.5032 19.6281 60.312 19.9137 60.0646 20.1971C59.8217 20.476 59.5046 20.7076 59.1133 20.892C58.7264 21.0765 58.2541 21.1687 57.6964 21.1687C56.9092 21.1687 56.1963 20.9663 55.5575 20.5614C54.9233 20.1521 54.4195 19.5516 54.0462 18.7599C53.6773 17.9638 53.4929 16.9877 53.4929 15.8317C53.4929 14.6442 53.6841 13.6568 54.0664 12.8697C54.4487 12.078 54.957 11.4865 55.5913 11.0952C56.23 10.6993 56.9295 10.5014 57.6896 10.5014C58.2699 10.5014 58.7534 10.6004 59.1403 10.7983C59.5316 10.9917 59.8465 11.2346 60.0849 11.527C60.3278 11.8149 60.5122 12.0982 60.6381 12.3771H60.7596V10.6364H63.5934V24.8864H60.7259ZM58.6072 18.8814C59.0705 18.8814 59.4619 18.7554 59.7812 18.5036C60.1051 18.2472 60.3525 17.8896 60.5234 17.4308C60.6989 16.9719 60.7866 16.4344 60.7866 15.8182C60.7866 15.2019 60.7011 14.6667 60.5302 14.2124C60.3593 13.758 60.1119 13.4072 59.788 13.1598C59.4641 12.9124 59.0705 12.7887 58.6072 12.7887C58.1349 12.7887 57.7369 12.9169 57.413 13.1733C57.0891 13.4297 56.844 13.785 56.6776 14.2393C56.5111 14.6937 56.4279 15.2199 56.4279 15.8182C56.4279 16.4209 56.5111 16.954 56.6776 17.4173C56.8485 17.8761 57.0936 18.2359 57.413 18.4968C57.7369 18.7532 58.1349 18.8814 58.6072 18.8814ZM72.5469 16.5874V10.6364H75.4212V21H72.6616V19.1175H72.5536C72.3197 19.7248 71.9306 20.2128 71.3864 20.5817C70.8466 20.9505 70.1876 21.1349 69.4094 21.1349C68.7167 21.1349 68.1072 20.9775 67.581 20.6626C67.0547 20.3478 66.6431 19.9002 66.3462 19.32C66.0539 18.7397 65.9054 18.0447 65.9009 17.2351V10.6364H68.7752V16.7223C68.7797 17.334 68.9439 17.8176 69.2678 18.1729C69.5916 18.5283 70.0257 18.706 70.57 18.706C70.9163 18.706 71.2402 18.6272 71.5415 18.4698C71.8429 18.3079 72.0858 18.0695 72.2702 17.7546C72.4592 17.4397 72.5514 17.0507 72.5469 16.5874ZM80.6755 21.1957C80.0143 21.1957 79.425 21.081 78.9078 20.8516C78.3905 20.6177 77.9811 20.2736 77.6798 19.8192C77.3829 19.3604 77.2345 18.7892 77.2345 18.1055C77.2345 17.5297 77.3402 17.0462 77.5516 16.6548C77.763 16.2635 78.0509 15.9486 78.4152 15.7102C78.7796 15.4718 79.1934 15.2919 79.6567 15.1705C80.1245 15.049 80.6148 14.9635 81.1276 14.9141C81.7303 14.8511 82.2161 14.7926 82.585 14.7386C82.9538 14.6802 83.2214 14.5947 83.3879 14.4822C83.5543 14.3698 83.6375 14.2034 83.6375 13.983V13.9425C83.6375 13.5152 83.5026 13.1845 83.2327 12.9506C82.9673 12.7167 82.5895 12.5998 82.0992 12.5998C81.5819 12.5998 81.1703 12.7145 80.8644 12.9439C80.5586 13.1688 80.3561 13.4522 80.2572 13.794L77.5988 13.5781C77.7338 12.9484 77.9991 12.4041 78.395 11.9453C78.7908 11.482 79.3013 11.1267 79.9266 10.8793C80.5563 10.6274 81.285 10.5014 82.1127 10.5014C82.6884 10.5014 83.2394 10.5689 83.7657 10.7038C84.2965 10.8388 84.7665 11.0479 85.1759 11.3313C85.5897 11.6147 85.9158 11.979 86.1542 12.4244C86.3926 12.8652 86.5118 13.3937 86.5118 14.0099V21H83.786V19.5629H83.705C83.5386 19.8867 83.3159 20.1723 83.037 20.4197C82.7581 20.6626 82.423 20.8538 82.0317 20.9933C81.6404 21.1282 81.1883 21.1957 80.6755 21.1957ZM81.4987 19.212C81.9215 19.212 82.2948 19.1288 82.6187 18.9624C82.9426 18.7914 83.1967 18.562 83.3811 18.2741C83.5655 17.9863 83.6578 17.6602 83.6578 17.2958V16.196C83.5678 16.2545 83.4441 16.3085 83.2867 16.358C83.1337 16.4029 82.9606 16.4457 82.7671 16.4862C82.5737 16.5221 82.3803 16.5559 82.1869 16.5874C81.9935 16.6143 81.818 16.6391 81.6606 16.6616C81.3232 16.7111 81.0286 16.7898 80.7767 16.8977C80.5248 17.0057 80.3292 17.1519 80.1897 17.3363C80.0503 17.5162 79.9806 17.7411 79.9806 18.011C79.9806 18.4023 80.1222 18.7015 80.4056 18.9084C80.6935 19.1108 81.0579 19.212 81.4987 19.212ZM88.7957 7.18182H92.3987L96.2041 16.4659H96.366L100.171 7.18182H103.774V21H100.941V12.006H100.826L97.2499 20.9325H95.3202L91.7442 11.9723H91.6295V21H88.7957V7.18182ZM110.81 21.2024C109.762 21.2024 108.856 20.9798 108.091 20.5344C107.331 20.0846 106.744 19.4594 106.33 18.6587C105.916 17.8536 105.709 16.9202 105.709 15.8587C105.709 14.7881 105.916 13.8525 106.33 13.0518C106.744 12.2467 107.331 11.6214 108.091 11.1761C108.856 10.7263 109.762 10.5014 110.81 10.5014C111.858 10.5014 112.762 10.7263 113.522 11.1761C114.287 11.6214 114.876 12.2467 115.29 13.0518C115.704 13.8525 115.911 14.7881 115.911 15.8587C115.911 16.9202 115.704 17.8536 115.29 18.6587C114.876 19.4594 114.287 20.0846 113.522 20.5344C112.762 20.9798 111.858 21.2024 110.81 21.2024ZM110.824 18.9759C111.3 18.9759 111.698 18.8409 112.018 18.571C112.337 18.2966 112.578 17.9233 112.74 17.451C112.906 16.9787 112.989 16.4412 112.989 15.8384C112.989 15.2357 112.906 14.6982 112.74 14.2259C112.578 13.7536 112.337 13.3802 112.018 13.1058C111.698 12.8314 111.3 12.6942 110.824 12.6942C110.342 12.6942 109.937 12.8314 109.609 13.1058C109.285 13.3802 109.04 13.7536 108.874 14.2259C108.712 14.6982 108.631 15.2357 108.631 15.8384C108.631 16.4412 108.712 16.9787 108.874 17.451C109.04 17.9233 109.285 18.2966 109.609 18.571C109.937 18.8409 110.342 18.9759 110.824 18.9759ZM121.599 21.1687C120.812 21.1687 120.099 20.9663 119.46 20.5614C118.826 20.1521 118.322 19.5516 117.949 18.7599C117.58 17.9638 117.395 16.9877 117.395 15.8317C117.395 14.6442 117.586 13.6568 117.969 12.8697C118.351 12.078 118.859 11.4865 119.494 11.0952C120.132 10.6993 120.832 10.5014 121.592 10.5014C122.172 10.5014 122.656 10.6004 123.043 10.7983C123.434 10.9917 123.749 11.2346 123.987 11.527C124.23 11.8149 124.415 12.0982 124.54 12.3771H124.628V7.18182H127.496V21H124.662V19.3402H124.54C124.406 19.6281 124.214 19.9137 123.967 20.1971C123.724 20.476 123.407 20.7076 123.016 20.892C122.629 21.0765 122.156 21.1687 121.599 21.1687ZM122.51 18.8814C122.973 18.8814 123.364 18.7554 123.684 18.5036C124.007 18.2472 124.255 17.8896 124.426 17.4308C124.601 16.9719 124.689 16.4344 124.689 15.8182C124.689 15.2019 124.603 14.6667 124.433 14.2124C124.262 13.758 124.014 13.4072 123.69 13.1598C123.366 12.9124 122.973 12.7887 122.51 12.7887C122.037 12.7887 121.639 12.9169 121.315 13.1733C120.991 13.4297 120.746 13.785 120.58 14.2393C120.413 14.6937 120.33 15.2199 120.33 15.8182C120.33 16.4209 120.413 16.954 120.58 17.4173C120.751 17.8761 120.996 18.2359 121.315 18.4968C121.639 18.7532 122.037 18.8814 122.51 18.8814ZM138.482 13.5916L135.85 13.7536C135.805 13.5286 135.709 13.3262 135.56 13.1463C135.412 12.9619 135.216 12.8157 134.973 12.7077C134.735 12.5953 134.449 12.5391 134.116 12.5391C133.671 12.5391 133.295 12.6335 132.99 12.8224C132.684 13.0069 132.531 13.2543 132.531 13.5646C132.531 13.812 132.63 14.0212 132.828 14.1921C133.026 14.363 133.365 14.5002 133.847 14.6037L135.722 14.9815C136.73 15.1884 137.481 15.5213 137.976 15.9801C138.471 16.4389 138.718 17.0417 138.718 17.7884C138.718 18.4676 138.518 19.0636 138.117 19.5763C137.722 20.0891 137.177 20.4895 136.485 20.7773C135.796 21.0607 135.003 21.2024 134.103 21.2024C132.731 21.2024 131.638 20.9168 130.824 20.3455C130.014 19.7698 129.54 18.9871 129.4 17.9975L132.227 17.8491C132.313 18.2674 132.52 18.5868 132.848 18.8072C133.176 19.0231 133.597 19.131 134.11 19.131C134.613 19.131 135.018 19.0343 135.324 18.8409C135.634 18.643 135.792 18.3888 135.796 18.0785C135.792 17.8176 135.682 17.6039 135.466 17.4375C135.25 17.2666 134.917 17.1361 134.467 17.0462L132.672 16.6886C131.66 16.4862 130.907 16.1353 130.412 15.636C129.922 15.1367 129.677 14.5002 129.677 13.7266C129.677 13.0608 129.857 12.4873 130.217 12.006C130.581 11.5247 131.091 11.1536 131.748 10.8928C132.409 10.6319 133.183 10.5014 134.069 10.5014C135.378 10.5014 136.408 10.7781 137.159 11.3313C137.915 11.8846 138.356 12.638 138.482 13.5916Z" fill="#4F1313"/>
<path d="M31.9446 16.4128C31.8921 16.2942 31.9407 16.1531 32.0536 16.0978C32.1664 16.0425 32.3006 16.0937 32.3531 16.2123C32.4058 16.3309 32.3571 16.472 32.2443 16.5273C32.1314 16.5826 31.9975 16.5314 31.9446 16.4128ZM30.8918 14.0389C30.8392 13.9203 30.8879 13.7792 31.0007 13.7239C31.1135 13.6686 31.2477 13.7197 31.3003 13.8384C31.353 13.957 31.3042 14.0981 31.1915 14.1534C31.0786 14.2087 30.9447 14.1574 30.8918 14.0389ZM33.2093 15.8865L34.1066 15.969C34.1582 15.9738 34.2037 15.9337 34.2082 15.8795C34.2128 15.8251 34.1746 15.7774 34.1231 15.7726L33.2143 15.6891C33.2112 15.2861 33.126 14.8734 32.9494 14.4752C32.7728 14.0769 32.5269 13.743 32.2354 13.4812L32.7584 12.6957C32.7882 12.6511 32.7778 12.5896 32.7356 12.5583C32.6932 12.5272 32.6347 12.5379 32.605 12.5826L32.0881 13.3585C31.38 12.8082 30.4468 12.6522 29.5753 12.9894L31.8629 18.1474C32.6688 17.6625 33.155 16.8105 33.2093 15.8865Z" fill="#801313"/>
<path d="M26.302 9.26508C27.1346 8.85406 28.154 9.23868 28.5635 10.1683L33.8794 22.2373C34.2888 23.1669 33.9119 24.2409 33.0793 24.6519C32.2467 25.0629 31.2273 24.6783 30.8179 23.7486L25.502 11.6797C25.0925 10.7501 25.4695 9.67611 26.302 9.26508Z" fill="#4F1313" stroke="#F28E8E" stroke-width="0.6"/>
<path d="M27.7305 9.28377C28.5631 9.69479 28.94 10.7688 28.5306 11.6984L23.2147 23.7673C22.8052 24.697 21.7858 25.0816 20.9532 24.6706C20.1206 24.2595 19.7437 23.1856 20.1532 22.2559L25.4691 10.187C25.8785 9.25737 26.8979 8.87274 27.7305 9.28377Z" fill="#801313" stroke="#F28E8E" stroke-width="0.6"/>
<path d="M20.375 5.468L20.375 5.46799C21.4012 4.96482 22.6621 5.43888 23.1706 6.58556L29.8022 21.5385C30.3108 22.6852 29.8457 24.0055 28.8194 24.5087C27.7931 25.0118 26.5323 24.5378 26.0237 23.3911L19.3922 8.43812C18.8836 7.29144 19.3487 5.97117 20.375 5.468Z" fill="#4F1313" stroke="#F28E8E" stroke-width="0.8"/>
<path d="M22.1373 5.49134L22.1373 5.49134C23.1636 5.99451 23.6287 7.31479 23.1201 8.46147L16.4886 23.4144C15.98 24.5611 14.7192 25.0352 13.6929 24.532C12.6666 24.0288 12.2016 22.7086 12.7101 21.5619L19.3417 6.60891C19.8502 5.46223 21.1111 4.98817 22.1373 5.49134Z" fill="#801313" stroke="#F28E8E" stroke-width="0.8"/>
</svg>
