<svg width="235" height="30" viewBox="0 0 235 30" fill="none" xmlns="http://www.w3.org/2000/svg">
<rect width="235" height="30" rx="15" fill="#B4BEFE"/>
<path d="M40.1534 21V7.18182H45.6861C46.7026 7.18182 47.5505 7.3325 48.2297 7.63388C48.909 7.93525 49.4195 8.35357 49.7613 8.88885C50.1032 9.41963 50.2741 10.0314 50.2741 10.7241C50.2741 11.2638 50.1662 11.7384 49.9503 12.1477C49.7344 12.5526 49.4375 12.8854 49.0596 13.1463C48.6863 13.4027 48.259 13.5849 47.7777 13.6928V13.8278C48.304 13.8503 48.7965 13.9987 49.2553 14.2731C49.7186 14.5475 50.0942 14.9321 50.3821 15.4268C50.67 15.9171 50.8139 16.5019 50.8139 17.1811C50.8139 17.9143 50.6317 18.5688 50.2674 19.1445C49.9075 19.7158 49.3745 20.1679 48.6683 20.5007C47.9621 20.8336 47.0917 21 46.0572 21H40.1534ZM43.0749 18.6115H45.4567C46.2708 18.6115 46.8646 18.4563 47.2379 18.146C47.6112 17.8311 47.7979 17.4128 47.7979 16.891C47.7979 16.5086 47.7057 16.1713 47.5213 15.8789C47.3369 15.5865 47.0737 15.3571 46.7319 15.1907C46.3945 15.0243 45.9919 14.9411 45.5241 14.9411H43.0749V18.6115ZM43.0749 12.9641H45.2407C45.6411 12.9641 45.9964 12.8944 46.3068 12.755C46.6217 12.611 46.8691 12.4086 47.049 12.1477C47.2334 11.8868 47.3256 11.5742 47.3256 11.2099C47.3256 10.7106 47.1479 10.308 46.7926 10.0021C46.4417 9.69626 45.9424 9.54332 45.2947 9.54332H43.0749V12.9641ZM59.3069 16.5874V10.6364H62.1812V21H59.4216V19.1175H59.3136C59.0797 19.7248 58.6906 20.2128 58.1464 20.5817C57.6066 20.9505 56.9476 21.1349 56.1695 21.1349C55.4767 21.1349 54.8673 20.9775 54.341 20.6626C53.8147 20.3478 53.4031 19.9002 53.1062 19.32C52.8139 18.7397 52.6654 18.0447 52.6609 17.2351V10.6364H55.5352V16.7223C55.5397 17.334 55.7039 17.8176 56.0278 18.1729C56.3516 18.5283 56.7857 18.706 57.33 18.706C57.6763 18.706 58.0002 18.6272 58.3016 18.4698C58.6029 18.3079 58.8458 18.0695 59.0303 17.7546C59.2192 17.4397 59.3114 17.0507 59.3069 16.5874ZM64.4803 21V10.6364H67.2668V12.4446H67.3748C67.5637 11.8014 67.8808 11.3156 68.3261 10.9872C68.7715 10.6544 69.2842 10.4879 69.8645 10.4879C70.0084 10.4879 70.1636 10.4969 70.3301 10.5149C70.4965 10.5329 70.6427 10.5576 70.7686 10.5891V13.1396C70.6337 13.0991 70.447 13.0631 70.2086 13.0316C69.9702 13.0001 69.752 12.9844 69.5541 12.9844C69.1313 12.9844 68.7535 13.0766 68.4206 13.261C68.0922 13.4409 67.8314 13.6928 67.6379 14.0167C67.449 14.3406 67.3546 14.7139 67.3546 15.1367V21H64.4803ZM75.129 15.0085V21H72.2547V7.18182H75.048V12.4648H75.1695C75.4034 11.8531 75.7812 11.3741 76.303 11.0277C76.8248 10.6768 77.4792 10.5014 78.2664 10.5014C78.9861 10.5014 79.6136 10.6589 80.1489 10.9737C80.6886 11.2841 81.107 11.7317 81.4038 12.3164C81.7052 12.8967 81.8536 13.5916 81.8491 14.4013V21H78.9749V14.9141C78.9794 14.2753 78.8174 13.7783 78.4891 13.4229C78.1652 13.0676 77.7109 12.8899 77.1261 12.8899C76.7348 12.8899 76.3884 12.9731 76.0871 13.1396C75.7902 13.306 75.5563 13.5489 75.3854 13.8683C75.2189 14.1831 75.1335 14.5632 75.129 15.0085ZM87.0664 21.1957C86.4052 21.1957 85.8159 21.081 85.2986 20.8516C84.7813 20.6177 84.372 20.2736 84.0706 19.8192C83.7738 19.3604 83.6253 18.7892 83.6253 18.1055C83.6253 17.5297 83.731 17.0462 83.9424 16.6548C84.1539 16.2635 84.4417 15.9486 84.8061 15.7102C85.1704 15.4718 85.5843 15.2919 86.0476 15.1705C86.5154 15.049 87.0057 14.9635 87.5184 14.9141C88.1212 14.8511 88.607 14.7926 88.9758 14.7386C89.3447 14.6802 89.6123 14.5947 89.7787 14.4822C89.9452 14.3698 90.0284 14.2034 90.0284 13.983V13.9425C90.0284 13.5152 89.8934 13.1845 89.6236 12.9506C89.3582 12.7167 88.9803 12.5998 88.49 12.5998C87.9728 12.5998 87.5612 12.7145 87.2553 12.9439C86.9494 13.1688 86.747 13.4522 86.6481 13.794L83.9897 13.5781C84.1246 12.9484 84.39 12.4041 84.7858 11.9453C85.1817 11.482 85.6922 11.1267 86.3174 10.8793C86.9472 10.6274 87.6759 10.5014 88.5035 10.5014C89.0793 10.5014 89.6303 10.5689 90.1566 10.7038C90.6874 10.8388 91.1574 11.0479 91.5667 11.3313C91.9806 11.6147 92.3067 11.979 92.5451 12.4244C92.7835 12.8652 92.9027 13.3937 92.9027 14.0099V21H90.1768V19.5629H90.0959C89.9294 19.8867 89.7068 20.1723 89.4279 20.4197C89.149 20.6626 88.8139 20.8538 88.4226 20.9933C88.0312 21.1282 87.5792 21.1957 87.0664 21.1957ZM87.8895 19.212C88.3124 19.212 88.6857 19.1288 89.0096 18.9624C89.3334 18.7914 89.5876 18.562 89.772 18.2741C89.9564 17.9863 90.0486 17.6602 90.0486 17.2958V16.196C89.9587 16.2545 89.835 16.3085 89.6775 16.358C89.5246 16.4029 89.3514 16.4457 89.158 16.4862C88.9646 16.5221 88.7712 16.5559 88.5777 16.5874C88.3843 16.6143 88.2089 16.6391 88.0515 16.6616C87.7141 16.7111 87.4195 16.7898 87.1676 16.8977C86.9157 17.0057 86.72 17.1519 86.5806 17.3363C86.4411 17.5162 86.3714 17.7411 86.3714 18.011C86.3714 18.4023 86.5131 18.7015 86.7965 18.9084C87.0844 19.1108 87.4487 19.212 87.8895 19.212ZM98.0069 15.0085V21H95.1326V10.6364H97.872V12.4648H97.9934C98.2228 11.8621 98.6074 11.3853 99.1472 11.0344C99.6869 10.6791 100.341 10.5014 101.111 10.5014C101.83 10.5014 102.458 10.6589 102.993 10.9737C103.528 11.2886 103.944 11.7384 104.241 12.3232C104.538 12.9034 104.687 13.5961 104.687 14.4013V21H101.812V14.9141C101.817 14.2798 101.655 13.785 101.327 13.4297C100.998 13.0698 100.546 12.8899 99.9703 12.8899C99.5835 12.8899 99.2416 12.9731 98.9448 13.1396C98.6524 13.306 98.423 13.5489 98.2565 13.8683C98.0946 14.1831 98.0114 14.5632 98.0069 15.0085ZM116.243 10.6364L112.62 21H109.381L105.758 10.6364H108.794L110.946 18.0515H111.054L113.2 10.6364H116.243ZM122.103 21.2024C121.037 21.2024 120.119 20.9865 119.35 20.5547C118.585 20.1184 117.996 19.5021 117.582 18.706C117.168 17.9053 116.961 16.9585 116.961 15.8654C116.961 14.7994 117.168 13.8638 117.582 13.0586C117.996 12.2534 118.578 11.6259 119.33 11.1761C120.085 10.7263 120.971 10.5014 121.988 10.5014C122.672 10.5014 123.308 10.6116 123.897 10.832C124.491 11.0479 125.008 11.3741 125.449 11.8104C125.895 12.2467 126.241 12.7955 126.488 13.4567C126.736 14.1134 126.859 14.8826 126.859 15.7642V16.5536H118.108V14.7724H124.154C124.154 14.3585 124.064 13.992 123.884 13.6726C123.704 13.3532 123.454 13.1036 123.135 12.9237C122.82 12.7392 122.454 12.647 122.035 12.647C121.599 12.647 121.212 12.7482 120.875 12.9506C120.542 13.1486 120.281 13.4162 120.092 13.7536C119.903 14.0864 119.806 14.4575 119.802 14.8668V16.5604C119.802 17.0732 119.896 17.5162 120.085 17.8896C120.279 18.2629 120.551 18.5508 120.902 18.7532C121.253 18.9556 121.669 19.0568 122.15 19.0568C122.469 19.0568 122.762 19.0118 123.027 18.9219C123.292 18.8319 123.52 18.697 123.709 18.517C123.897 18.3371 124.041 18.1167 124.14 17.8558L126.799 18.0312C126.664 18.67 126.387 19.2277 125.969 19.7045C125.555 20.1768 125.02 20.5457 124.363 20.8111C123.711 21.072 122.957 21.2024 122.103 21.2024ZM128.735 21V10.6364H131.522V12.4446H131.63C131.819 11.8014 132.136 11.3156 132.581 10.9872C133.026 10.6544 133.539 10.4879 134.119 10.4879C134.263 10.4879 134.419 10.4969 134.585 10.5149C134.751 10.5329 134.898 10.5576 135.024 10.5891V13.1396C134.889 13.0991 134.702 13.0631 134.463 13.0316C134.225 13.0001 134.007 12.9844 133.809 12.9844C133.386 12.9844 133.008 13.0766 132.675 13.261C132.347 13.4409 132.086 13.6928 131.893 14.0167C131.704 14.3406 131.609 14.7139 131.609 15.1367V21H128.735ZM145.132 13.5916L142.501 13.7536C142.456 13.5286 142.359 13.3262 142.211 13.1463C142.062 12.9619 141.867 12.8157 141.624 12.7077C141.386 12.5953 141.1 12.5391 140.767 12.5391C140.322 12.5391 139.946 12.6335 139.64 12.8224C139.334 13.0069 139.181 13.2543 139.181 13.5646C139.181 13.812 139.28 14.0212 139.478 14.1921C139.676 14.363 140.016 14.5002 140.497 14.6037L142.373 14.9815C143.38 15.1884 144.132 15.5213 144.626 15.9801C145.121 16.4389 145.369 17.0417 145.369 17.7884C145.369 18.4676 145.168 19.0636 144.768 19.5763C144.372 20.0891 143.828 20.4895 143.135 20.7773C142.447 21.0607 141.653 21.2024 140.754 21.2024C139.382 21.2024 138.289 20.9168 137.474 20.3455C136.665 19.7698 136.19 18.9871 136.051 17.9975L138.878 17.8491C138.963 18.2674 139.17 18.5868 139.499 18.8072C139.827 19.0231 140.247 19.131 140.76 19.131C141.264 19.131 141.669 19.0343 141.975 18.8409C142.285 18.643 142.443 18.3888 142.447 18.0785C142.443 17.8176 142.332 17.6039 142.116 17.4375C141.901 17.2666 141.568 17.1361 141.118 17.0462L139.323 16.6886C138.311 16.4862 137.558 16.1353 137.063 15.636C136.573 15.1367 136.327 14.5002 136.327 13.7266C136.327 13.0608 136.507 12.4873 136.867 12.006C137.232 11.5247 137.742 11.1536 138.399 10.8928C139.06 10.6319 139.834 10.5014 140.72 10.5014C142.029 10.5014 143.059 10.7781 143.81 11.3313C144.566 11.8846 145.006 12.638 145.132 13.5916ZM151.902 21.2024C150.835 21.2024 149.918 20.9865 149.149 20.5547C148.384 20.1184 147.795 19.5021 147.381 18.706C146.967 17.9053 146.76 16.9585 146.76 15.8654C146.76 14.7994 146.967 13.8638 147.381 13.0586C147.795 12.2534 148.377 11.6259 149.128 11.1761C149.884 10.7263 150.77 10.5014 151.787 10.5014C152.471 10.5014 153.107 10.6116 153.696 10.832C154.29 11.0479 154.807 11.3741 155.248 11.8104C155.693 12.2467 156.04 12.7955 156.287 13.4567C156.535 14.1134 156.658 14.8826 156.658 15.7642V16.5536H147.907V14.7724H153.953C153.953 14.3585 153.863 13.992 153.683 13.6726C153.503 13.3532 153.253 13.1036 152.934 12.9237C152.619 12.7392 152.252 12.647 151.834 12.647C151.398 12.647 151.011 12.7482 150.674 12.9506C150.341 13.1486 150.08 13.4162 149.891 13.7536C149.702 14.0864 149.605 14.4575 149.601 14.8668V16.5604C149.601 17.0732 149.695 17.5162 149.884 17.8896C150.078 18.2629 150.35 18.5508 150.701 18.7532C151.051 18.9556 151.467 19.0568 151.949 19.0568C152.268 19.0568 152.56 19.0118 152.826 18.9219C153.091 18.8319 153.318 18.697 153.507 18.517C153.696 18.3371 153.84 18.1167 153.939 17.8558L156.598 18.0312C156.463 18.67 156.186 19.2277 155.768 19.7045C155.354 20.1768 154.819 20.5457 154.162 20.8111C153.51 21.072 152.756 21.2024 151.902 21.2024ZM160.214 21.1754C159.769 21.1754 159.386 21.018 159.067 20.7031C158.752 20.3838 158.595 20.0014 158.595 19.5561C158.595 19.1153 158.752 18.7375 159.067 18.4226C159.386 18.1077 159.769 17.9503 160.214 17.9503C160.646 17.9503 161.024 18.1077 161.348 18.4226C161.671 18.7375 161.833 19.1153 161.833 19.5561C161.833 19.853 161.757 20.1251 161.604 20.3725C161.455 20.6154 161.26 20.8111 161.017 20.9595C160.774 21.1035 160.506 21.1754 160.214 21.1754ZM168.916 21.2024C167.85 21.2024 166.933 20.9865 166.163 20.5547C165.399 20.1184 164.809 19.5021 164.396 18.706C163.982 17.9053 163.775 16.9585 163.775 15.8654C163.775 14.7994 163.982 13.8638 164.396 13.0586C164.809 12.2534 165.392 11.6259 166.143 11.1761C166.899 10.7263 167.785 10.5014 168.801 10.5014C169.485 10.5014 170.122 10.6116 170.711 10.832C171.305 11.0479 171.822 11.3741 172.263 11.8104C172.708 12.2467 173.054 12.7955 173.302 13.4567C173.549 14.1134 173.673 14.8826 173.673 15.7642V16.5536H164.922V14.7724H170.967C170.967 14.3585 170.877 13.992 170.697 13.6726C170.517 13.3532 170.268 13.1036 169.948 12.9237C169.634 12.7392 169.267 12.647 168.849 12.647C168.412 12.647 168.026 12.7482 167.688 12.9506C167.355 13.1486 167.094 13.4162 166.906 13.7536C166.717 14.0864 166.62 14.4575 166.615 14.8668V16.5604C166.615 17.0732 166.71 17.5162 166.899 17.8896C167.092 18.2629 167.364 18.5508 167.715 18.7532C168.066 18.9556 168.482 19.0568 168.963 19.0568C169.283 19.0568 169.575 19.0118 169.841 18.9219C170.106 18.8319 170.333 18.697 170.522 18.517C170.711 18.3371 170.855 18.1167 170.954 17.8558L173.612 18.0312C173.477 18.67 173.201 19.2277 172.782 19.7045C172.368 20.1768 171.833 20.5457 171.176 20.8111C170.524 21.072 169.771 21.2024 168.916 21.2024ZM182.195 16.5874V10.6364H185.069V21H182.309V19.1175H182.201C181.967 19.7248 181.578 20.2128 181.034 20.5817C180.494 20.9505 179.835 21.1349 179.057 21.1349C178.364 21.1349 177.755 20.9775 177.229 20.6626C176.702 20.3478 176.291 19.9002 175.994 19.32C175.702 18.7397 175.553 18.0447 175.549 17.2351V10.6364H178.423V16.7223C178.427 17.334 178.592 17.8176 178.915 18.1729C179.239 18.5283 179.673 18.706 180.218 18.706C180.564 18.706 180.888 18.6272 181.189 18.4698C181.491 18.3079 181.734 18.0695 181.918 17.7546C182.107 17.4397 182.199 17.0507 182.195 16.5874ZM189.048 21.1754C188.603 21.1754 188.22 21.018 187.901 20.7031C187.586 20.3838 187.429 20.0014 187.429 19.5561C187.429 19.1153 187.586 18.7375 187.901 18.4226C188.22 18.1077 188.603 17.9503 189.048 17.9503C189.48 17.9503 189.858 18.1077 190.182 18.4226C190.505 18.7375 190.667 19.1153 190.667 19.5561C190.667 19.853 190.591 20.1251 190.438 20.3725C190.289 20.6154 190.094 20.8111 189.851 20.9595C189.608 21.1035 189.34 21.1754 189.048 21.1754ZM197.71 21.2024C196.662 21.2024 195.755 20.9798 194.991 20.5344C194.23 20.0846 193.643 19.4594 193.23 18.6587C192.816 17.8536 192.609 16.9202 192.609 15.8587C192.609 14.7881 192.816 13.8525 193.23 13.0518C193.643 12.2467 194.23 11.6214 194.991 11.1761C195.755 10.7263 196.662 10.5014 197.71 10.5014C198.758 10.5014 199.662 10.7263 200.422 11.1761C201.187 11.6214 201.776 12.2467 202.19 13.0518C202.604 13.8525 202.811 14.7881 202.811 15.8587C202.811 16.9202 202.604 17.8536 202.19 18.6587C201.776 19.4594 201.187 20.0846 200.422 20.5344C199.662 20.9798 198.758 21.2024 197.71 21.2024ZM197.723 18.9759C198.2 18.9759 198.598 18.8409 198.917 18.571C199.237 18.2966 199.477 17.9233 199.639 17.451C199.806 16.9787 199.889 16.4412 199.889 15.8384C199.889 15.2357 199.806 14.6982 199.639 14.2259C199.477 13.7536 199.237 13.3802 198.917 13.1058C198.598 12.8314 198.2 12.6942 197.723 12.6942C197.242 12.6942 196.837 12.8314 196.509 13.1058C196.185 13.3802 195.94 13.7536 195.773 14.2259C195.611 14.6982 195.53 15.2357 195.53 15.8384C195.53 16.4412 195.611 16.9787 195.773 17.451C195.94 17.9233 196.185 18.2966 196.509 18.571C196.837 18.8409 197.242 18.9759 197.723 18.9759ZM204.679 21V10.6364H207.466V12.4446H207.574C207.763 11.8014 208.08 11.3156 208.525 10.9872C208.971 10.6544 209.483 10.4879 210.064 10.4879C210.208 10.4879 210.363 10.4969 210.529 10.5149C210.696 10.5329 210.842 10.5576 210.968 10.5891V13.1396C210.833 13.0991 210.646 13.0631 210.408 13.0316C210.169 13.0001 209.951 12.9844 209.753 12.9844C209.331 12.9844 208.953 13.0766 208.62 13.261C208.291 13.4409 208.031 13.6928 207.837 14.0167C207.648 14.3406 207.554 14.7139 207.554 15.1367V21H204.679ZM216.641 25.1023C215.709 25.1023 214.911 24.9741 214.245 24.7177C213.584 24.4658 213.058 24.1217 212.666 23.6854C212.275 23.2491 212.021 22.7588 211.904 22.2145L214.562 21.8569C214.643 22.0638 214.772 22.2572 214.947 22.4371C215.122 22.6171 215.354 22.761 215.642 22.869C215.934 22.9814 216.29 23.0376 216.708 23.0376C217.333 23.0376 217.848 22.8847 218.253 22.5788C218.662 22.2775 218.867 21.7714 218.867 21.0607V19.1648H218.746C218.62 19.4527 218.431 19.7248 218.179 19.9812C217.927 20.2376 217.603 20.4467 217.207 20.6087C216.811 20.7706 216.339 20.8516 215.79 20.8516C215.012 20.8516 214.304 20.6716 213.665 20.3118C213.031 19.9474 212.525 19.3919 212.147 18.6452C211.774 17.8941 211.587 16.945 211.587 15.7979C211.587 14.6239 211.778 13.6433 212.16 12.8562C212.543 12.069 213.051 11.4798 213.685 11.0884C214.324 10.6971 215.023 10.5014 215.784 10.5014C216.364 10.5014 216.85 10.6004 217.241 10.7983C217.632 10.9917 217.947 11.2346 218.186 11.527C218.429 11.8149 218.615 12.0982 218.746 12.3771H218.854V10.6364H221.708V21.1012C221.708 21.9828 221.492 22.7205 221.06 23.3143C220.628 23.908 220.03 24.3533 219.265 24.6502C218.505 24.9516 217.63 25.1023 216.641 25.1023ZM216.701 18.6925C217.165 18.6925 217.556 18.5778 217.875 18.3484C218.199 18.1145 218.447 17.7816 218.617 17.3498C218.793 16.9135 218.881 16.3917 218.881 15.7844C218.881 15.1772 218.795 14.6509 218.624 14.2056C218.453 13.7558 218.206 13.4072 217.882 13.1598C217.558 12.9124 217.165 12.7887 216.701 12.7887C216.229 12.7887 215.831 12.9169 215.507 13.1733C215.183 13.4252 214.938 13.776 214.772 14.2259C214.605 14.6757 214.522 15.1952 214.522 15.7844C214.522 16.3827 214.605 16.9 214.772 17.3363C214.942 17.7681 215.188 18.1032 215.507 18.3416C215.831 18.5755 216.229 18.6925 216.701 18.6925Z" fill="#362C63"/>
<g clip-path="url(#clip0_2121_19)">
<path d="M32.5117 18.4083L25.2833 15.1217C25.2583 15.11 25.2333 15.1008 25.2083 15.0917C24.6017 14.885 23.9433 15.0375 23.49 15.4908C23.0367 15.9442 22.8842 16.6025 23.1217 17.2833L26.4083 24.5125C26.5408 24.805 26.83 24.995 27.1517 25.0008H27.1675C27.4825 25.0008 27.7717 24.8225 27.9133 24.54L29.4558 21.455L32.5408 19.9125C32.8283 19.7683 33.0075 19.4733 33.0017 19.1517C32.9958 18.8308 32.8058 18.5417 32.5133 18.4083H32.5117ZM23.76 23.2992C23.6167 23.3117 23.4725 23.3208 23.3267 23.3267C22.77 22.7758 21.3183 21.2283 20.3067 19.1667H20.9167C21.3767 19.1667 21.75 18.7942 21.75 18.3333C21.75 17.8725 21.3767 17.5 20.9167 17.5H19.6417C19.3992 16.7067 19.25 15.8667 19.25 15C19.25 14.1333 19.4 13.2942 19.6433 12.5H26.3575C26.4558 12.8225 26.5392 13.1525 26.6033 13.4892C26.69 13.9417 27.1275 14.24 27.5775 14.1517C28.0292 14.0658 28.3258 13.6292 28.24 13.1775C28.1967 12.9483 28.145 12.7225 28.0875 12.5H30.915C30.9258 12.5 30.9375 12.5 30.9483 12.5C31.1975 13.29 31.3317 14.13 31.3317 15.0008C31.3317 15.2567 31.32 15.5092 31.2975 15.7592C31.2567 16.2175 31.5942 16.6225 32.0525 16.6642C32.5125 16.7092 32.9167 16.3675 32.9575 15.9092C32.9842 15.61 32.9983 15.3067 32.9983 15.0008C33 9.48583 28.5142 5 23 5C17.4858 5 13 9.48583 13 15C13 20.5142 17.4858 25 22.9992 25C23.305 25 23.6075 24.9858 23.9058 24.9592C24.3642 24.9183 24.7033 24.5142 24.6625 24.055C24.6217 23.5975 24.2192 23.2592 23.76 23.2992ZM17.91 17.5H15.0833C15.0725 17.5 15.0617 17.5 15.05 17.5C14.8008 16.71 14.6667 15.87 14.6667 14.9992C14.6667 14.1283 14.8008 13.2883 15.05 12.4983C15.0608 12.4983 15.0717 12.4983 15.0833 12.4983H17.91C17.7058 13.2942 17.5833 14.1308 17.5833 14.9983C17.5833 15.8658 17.705 16.7025 17.91 17.4983V17.5ZM20.3108 10.8333C21.1617 9.1025 22.3233 7.73 23.0017 7.01C23.6808 7.72917 24.8425 9.09917 25.6933 10.8333H20.3108ZM30.215 10.8333H27.525C26.8658 9.26167 25.9517 7.92667 25.165 6.9525C27.3142 7.53167 29.1225 8.95 30.215 10.8333ZM20.8333 6.95333C20.0467 7.9275 19.1317 9.2625 18.4733 10.8333H15.785C16.8767 8.95 18.6842 7.53167 20.8333 6.95333ZM15.785 19.1667H18.4733C19.1317 20.7383 20.0467 22.0725 20.8333 23.0467C18.685 22.4675 16.8775 21.0492 15.785 19.1667Z" fill="#362C63"/>
</g>
<defs>
<clipPath id="clip0_2121_19">
<rect width="20" height="20" fill="white" transform="translate(13 5)"/>
</clipPath>
</defs>
</svg>
