<svg width="288" height="30" viewBox="0 0 288 30" fill="none" xmlns="http://www.w3.org/2000/svg">
<rect width="235" height="30" rx="15" fill="#6AFAD6"/>
<path d="M40.201 21V7.18182H45.7337C46.7502 7.18182 47.5981 7.3325 48.2773 7.63388C48.9566 7.93525 49.4671 8.35357 49.8089 8.88885C50.1508 9.41963 50.3217 10.0314 50.3217 10.7241C50.3217 11.2638 50.2138 11.7384 49.9979 12.1477C49.782 12.5526 49.4851 12.8854 49.1072 13.1463C48.7339 13.4027 48.3066 13.5849 47.8253 13.6928V13.8278C48.3516 13.8503 48.8441 13.9987 49.3029 14.2731C49.7662 14.5475 50.1418 14.9321 50.4297 15.4268C50.7176 15.9171 50.8615 16.5019 50.8615 17.1811C50.8615 17.9143 50.6793 18.5688 50.315 19.1445C49.9551 19.7158 49.4221 20.1679 48.7159 20.5007C48.0097 20.8336 47.1393 21 46.1048 21H40.201ZM43.1225 18.6115H45.5043C46.3184 18.6115 46.9122 18.4563 47.2855 18.146C47.6589 17.8311 47.8455 17.4128 47.8455 16.891C47.8455 16.5086 47.7533 16.1713 47.5689 15.8789C47.3845 15.5865 47.1213 15.3571 46.7795 15.1907C46.4421 15.0243 46.0395 14.9411 45.5717 14.9411H43.1225V18.6115ZM43.1225 12.9641H45.2884C45.6887 12.9641 46.044 12.8944 46.3544 12.755C46.6693 12.611 46.9167 12.4086 47.0966 12.1477C47.281 11.8868 47.3732 11.5742 47.3732 11.2099C47.3732 10.7106 47.1955 10.308 46.8402 10.0021C46.4893 9.69626 45.9901 9.54332 45.3423 9.54332H43.1225V12.9641ZM59.3545 16.5874V10.6364H62.2288V21H59.4692V19.1175H59.3612C59.1273 19.7248 58.7383 20.2128 58.194 20.5817C57.6542 20.9505 56.9952 21.1349 56.2171 21.1349C55.5244 21.1349 54.9149 20.9775 54.3886 20.6626C53.8623 20.3478 53.4507 19.9002 53.1539 19.32C52.8615 18.7397 52.713 18.0447 52.7085 17.2351V10.6364H55.5828V16.7223C55.5873 17.334 55.7515 17.8176 56.0754 18.1729C56.3992 18.5283 56.8333 18.706 57.3776 18.706C57.7239 18.706 58.0478 18.6272 58.3492 18.4698C58.6505 18.3079 58.8934 18.0695 59.0779 17.7546C59.2668 17.4397 59.359 17.0507 59.3545 16.5874ZM64.5279 21V10.6364H67.3145V12.4446H67.4224C67.6113 11.8014 67.9284 11.3156 68.3738 10.9872C68.8191 10.6544 69.3319 10.4879 69.9121 10.4879C70.056 10.4879 70.2112 10.4969 70.3777 10.5149C70.5441 10.5329 70.6903 10.5576 70.8162 10.5891V13.1396C70.6813 13.0991 70.4946 13.0631 70.2562 13.0316C70.0178 13.0001 69.7997 12.9844 69.6017 12.9844C69.1789 12.9844 68.8011 13.0766 68.4682 13.261C68.1399 13.4409 67.879 13.6928 67.6855 14.0167C67.4966 14.3406 67.4022 14.7139 67.4022 15.1367V21H64.5279ZM75.1766 15.0085V21H72.3023V7.18182H75.0956V12.4648H75.2171C75.451 11.8531 75.8288 11.3741 76.3506 11.0277C76.8724 10.6768 77.5268 10.5014 78.314 10.5014C79.0337 10.5014 79.6612 10.6589 80.1965 10.9737C80.7362 11.2841 81.1546 11.7317 81.4514 12.3164C81.7528 12.8967 81.9012 13.5916 81.8968 14.4013V21H79.0225V14.9141C79.027 14.2753 78.865 13.7783 78.5367 13.4229C78.2128 13.0676 77.7585 12.8899 77.1737 12.8899C76.7824 12.8899 76.4361 12.9731 76.1347 13.1396C75.8378 13.306 75.6039 13.5489 75.433 13.8683C75.2665 14.1831 75.1811 14.5632 75.1766 15.0085ZM87.114 21.1957C86.4528 21.1957 85.8635 21.081 85.3462 20.8516C84.829 20.6177 84.4196 20.2736 84.1183 19.8192C83.8214 19.3604 83.6729 18.7892 83.6729 18.1055C83.6729 17.5297 83.7786 17.0462 83.9901 16.6548C84.2015 16.2635 84.4893 15.9486 84.8537 15.7102C85.218 15.4718 85.6319 15.2919 86.0952 15.1705C86.563 15.049 87.0533 14.9635 87.5661 14.9141C88.1688 14.8511 88.6546 14.7926 89.0234 14.7386C89.3923 14.6802 89.6599 14.5947 89.8263 14.4822C89.9928 14.3698 90.076 14.2034 90.076 13.983V13.9425C90.076 13.5152 89.9411 13.1845 89.6712 12.9506C89.4058 12.7167 89.0279 12.5998 88.5376 12.5998C88.0204 12.5998 87.6088 12.7145 87.3029 12.9439C86.997 13.1688 86.7946 13.4522 86.6957 13.794L84.0373 13.5781C84.1722 12.9484 84.4376 12.4041 84.8335 11.9453C85.2293 11.482 85.7398 11.1267 86.3651 10.8793C86.9948 10.6274 87.7235 10.5014 88.5511 10.5014C89.1269 10.5014 89.6779 10.5689 90.2042 10.7038C90.735 10.8388 91.205 11.0479 91.6143 11.3313C92.0282 11.6147 92.3543 11.979 92.5927 12.4244C92.8311 12.8652 92.9503 13.3937 92.9503 14.0099V21H90.2244V19.5629H90.1435C89.977 19.8867 89.7544 20.1723 89.4755 20.4197C89.1966 20.6626 88.8615 20.8538 88.4702 20.9933C88.0788 21.1282 87.6268 21.1957 87.114 21.1957ZM87.9371 19.212C88.36 19.212 88.7333 19.1288 89.0572 18.9624C89.381 18.7914 89.6352 18.562 89.8196 18.2741C90.004 17.9863 90.0962 17.6602 90.0962 17.2958V16.196C90.0063 16.2545 89.8826 16.3085 89.7251 16.358C89.5722 16.4029 89.399 16.4457 89.2056 16.4862C89.0122 16.5221 88.8188 16.5559 88.6254 16.5874C88.4319 16.6143 88.2565 16.6391 88.0991 16.6616C87.7617 16.7111 87.4671 16.7898 87.2152 16.8977C86.9633 17.0057 86.7676 17.1519 86.6282 17.3363C86.4888 17.5162 86.419 17.7411 86.419 18.011C86.419 18.4023 86.5607 18.7015 86.8441 18.9084C87.132 19.1108 87.4963 19.212 87.9371 19.212ZM98.0545 15.0085V21H95.1802V10.6364H97.9196V12.4648H98.041C98.2704 11.8621 98.655 11.3853 99.1948 11.0344C99.7346 10.6791 100.389 10.5014 101.158 10.5014C101.878 10.5014 102.505 10.6589 103.041 10.9737C103.576 11.2886 103.992 11.7384 104.289 12.3232C104.586 12.9034 104.734 13.5961 104.734 14.4013V21H101.86V14.9141C101.864 14.2798 101.702 13.785 101.374 13.4297C101.046 13.0698 100.594 12.8899 100.018 12.8899C99.6311 12.8899 99.2892 12.9731 98.9924 13.1396C98.7 13.306 98.4706 13.5489 98.3042 13.8683C98.1422 14.1831 98.059 14.5632 98.0545 15.0085ZM116.29 10.6364L112.667 21H109.429L105.805 10.6364H108.842L110.994 18.0515H111.102L113.247 10.6364H116.29ZM122.15 21.2024C121.084 21.2024 120.167 20.9865 119.397 20.5547C118.633 20.1184 118.044 19.5021 117.63 18.706C117.216 17.9053 117.009 16.9585 117.009 15.8654C117.009 14.7994 117.216 13.8638 117.63 13.0586C118.044 12.2534 118.626 11.6259 119.377 11.1761C120.133 10.7263 121.019 10.5014 122.036 10.5014C122.719 10.5014 123.356 10.6116 123.945 10.832C124.539 11.0479 125.056 11.3741 125.497 11.8104C125.942 12.2467 126.289 12.7955 126.536 13.4567C126.783 14.1134 126.907 14.8826 126.907 15.7642V16.5536H118.156V14.7724H124.201C124.201 14.3585 124.111 13.992 123.932 13.6726C123.752 13.3532 123.502 13.1036 123.183 12.9237C122.868 12.7392 122.501 12.647 122.083 12.647C121.647 12.647 121.26 12.7482 120.922 12.9506C120.589 13.1486 120.329 13.4162 120.14 13.7536C119.951 14.0864 119.854 14.4575 119.85 14.8668V16.5604C119.85 17.0732 119.944 17.5162 120.133 17.8896C120.326 18.2629 120.598 18.5508 120.949 18.7532C121.3 18.9556 121.716 19.0568 122.198 19.0568C122.517 19.0568 122.809 19.0118 123.075 18.9219C123.34 18.8319 123.567 18.697 123.756 18.517C123.945 18.3371 124.089 18.1167 124.188 17.8558L126.846 18.0312C126.711 18.67 126.435 19.2277 126.016 19.7045C125.603 20.1768 125.067 20.5457 124.411 20.8111C123.758 21.072 123.005 21.2024 122.15 21.2024ZM128.783 21V10.6364H131.569V12.4446H131.677C131.866 11.8014 132.183 11.3156 132.629 10.9872C133.074 10.6544 133.587 10.4879 134.167 10.4879C134.311 10.4879 134.466 10.4969 134.633 10.5149C134.799 10.5329 134.945 10.5576 135.071 10.5891V13.1396C134.936 13.0991 134.749 13.0631 134.511 13.0316C134.273 13.0001 134.055 12.9844 133.857 12.9844C133.434 12.9844 133.056 13.0766 132.723 13.261C132.395 13.4409 132.134 13.6928 131.94 14.0167C131.752 14.3406 131.657 14.7139 131.657 15.1367V21H128.783ZM145.18 13.5916L142.549 13.7536C142.504 13.5286 142.407 13.3262 142.259 13.1463C142.11 12.9619 141.914 12.8157 141.672 12.7077C141.433 12.5953 141.147 12.5391 140.815 12.5391C140.369 12.5391 139.994 12.6335 139.688 12.8224C139.382 13.0069 139.229 13.2543 139.229 13.5646C139.229 13.812 139.328 14.0212 139.526 14.1921C139.724 14.363 140.063 14.5002 140.545 14.6037L142.42 14.9815C143.428 15.1884 144.179 15.5213 144.674 15.9801C145.169 16.4389 145.416 17.0417 145.416 17.7884C145.416 18.4676 145.216 19.0636 144.816 19.5763C144.42 20.0891 143.876 20.4895 143.183 20.7773C142.495 21.0607 141.701 21.2024 140.801 21.2024C139.429 21.2024 138.336 20.9168 137.522 20.3455C136.712 19.7698 136.238 18.9871 136.098 17.9975L138.925 17.8491C139.011 18.2674 139.218 18.5868 139.546 18.8072C139.875 19.0231 140.295 19.131 140.808 19.131C141.312 19.131 141.717 19.0343 142.022 18.8409C142.333 18.643 142.49 18.3888 142.495 18.0785C142.49 17.8176 142.38 17.6039 142.164 17.4375C141.948 17.2666 141.615 17.1361 141.165 17.0462L139.371 16.6886C138.359 16.4862 137.605 16.1353 137.11 15.636C136.62 15.1367 136.375 14.5002 136.375 13.7266C136.375 13.0608 136.555 12.4873 136.915 12.006C137.279 11.5247 137.79 11.1536 138.446 10.8928C139.108 10.6319 139.881 10.5014 140.767 10.5014C142.076 10.5014 143.106 10.7781 143.858 11.3313C144.613 11.8846 145.054 12.638 145.18 13.5916ZM151.949 21.2024C150.883 21.2024 149.965 20.9865 149.196 20.5547C148.432 20.1184 147.842 19.5021 147.429 18.706C147.015 17.9053 146.808 16.9585 146.808 15.8654C146.808 14.7994 147.015 13.8638 147.429 13.0586C147.842 12.2534 148.425 11.6259 149.176 11.1761C149.932 10.7263 150.818 10.5014 151.834 10.5014C152.518 10.5014 153.155 10.6116 153.744 10.832C154.338 11.0479 154.855 11.3741 155.296 11.8104C155.741 12.2467 156.087 12.7955 156.335 13.4567C156.582 14.1134 156.706 14.8826 156.706 15.7642V16.5536H147.955V14.7724H154C154 14.3585 153.91 13.992 153.73 13.6726C153.55 13.3532 153.301 13.1036 152.981 12.9237C152.667 12.7392 152.3 12.647 151.882 12.647C151.445 12.647 151.059 12.7482 150.721 12.9506C150.388 13.1486 150.127 13.4162 149.938 13.7536C149.75 14.0864 149.653 14.4575 149.648 14.8668V16.5604C149.648 17.0732 149.743 17.5162 149.932 17.8896C150.125 18.2629 150.397 18.5508 150.748 18.7532C151.099 18.9556 151.515 19.0568 151.996 19.0568C152.316 19.0568 152.608 19.0118 152.873 18.9219C153.139 18.8319 153.366 18.697 153.555 18.517C153.744 18.3371 153.888 18.1167 153.987 17.8558L156.645 18.0312C156.51 18.67 156.234 19.2277 155.815 19.7045C155.401 20.1768 154.866 20.5457 154.209 20.8111C153.557 21.072 152.804 21.2024 151.949 21.2024ZM160.262 21.1754C159.816 21.1754 159.434 21.018 159.115 20.7031C158.8 20.3838 158.642 20.0014 158.642 19.5561C158.642 19.1153 158.8 18.7375 159.115 18.4226C159.434 18.1077 159.816 17.9503 160.262 17.9503C160.693 17.9503 161.071 18.1077 161.395 18.4226C161.719 18.7375 161.881 19.1153 161.881 19.5561C161.881 19.853 161.804 20.1251 161.652 20.3725C161.503 20.6154 161.307 20.8111 161.065 20.9595C160.822 21.1035 160.554 21.1754 160.262 21.1754ZM168.964 21.2024C167.898 21.2024 166.98 20.9865 166.211 20.5547C165.446 20.1184 164.857 19.5021 164.443 18.706C164.029 17.9053 163.822 16.9585 163.822 15.8654C163.822 14.7994 164.029 13.8638 164.443 13.0586C164.857 12.2534 165.44 11.6259 166.191 11.1761C166.946 10.7263 167.833 10.5014 168.849 10.5014C169.533 10.5014 170.169 10.6116 170.759 10.832C171.352 11.0479 171.87 11.3741 172.31 11.8104C172.756 12.2467 173.102 12.7955 173.349 13.4567C173.597 14.1134 173.721 14.8826 173.721 15.7642V16.5536H164.969V14.7724H171.015C171.015 14.3585 170.925 13.992 170.745 13.6726C170.565 13.3532 170.315 13.1036 169.996 12.9237C169.681 12.7392 169.315 12.647 168.896 12.647C168.46 12.647 168.073 12.7482 167.736 12.9506C167.403 13.1486 167.142 13.4162 166.953 13.7536C166.764 14.0864 166.667 14.4575 166.663 14.8668V16.5604C166.663 17.0732 166.757 17.5162 166.946 17.8896C167.14 18.2629 167.412 18.5508 167.763 18.7532C168.114 18.9556 168.53 19.0568 169.011 19.0568C169.33 19.0568 169.623 19.0118 169.888 18.9219C170.154 18.8319 170.381 18.697 170.57 18.517C170.759 18.3371 170.902 18.1167 171.001 17.8558L173.66 18.0312C173.525 18.67 173.248 19.2277 172.83 19.7045C172.416 20.1768 171.881 20.5457 171.224 20.8111C170.572 21.072 169.818 21.2024 168.964 21.2024ZM182.242 16.5874V10.6364H185.116V21H182.357V19.1175H182.249C182.015 19.7248 181.626 20.2128 181.082 20.5817C180.542 20.9505 179.883 21.1349 179.105 21.1349C178.412 21.1349 177.803 20.9775 177.276 20.6626C176.75 20.3478 176.338 19.9002 176.042 19.32C175.749 18.7397 175.601 18.0447 175.596 17.2351V10.6364H178.471V16.7223C178.475 17.334 178.639 17.8176 178.963 18.1729C179.287 18.5283 179.721 18.706 180.265 18.706C180.612 18.706 180.935 18.6272 181.237 18.4698C181.538 18.3079 181.781 18.0695 181.966 17.7546C182.154 17.4397 182.247 17.0507 182.242 16.5874ZM189.096 21.1754C188.65 21.1754 188.268 21.018 187.949 20.7031C187.634 20.3838 187.476 20.0014 187.476 19.5561C187.476 19.1153 187.634 18.7375 187.949 18.4226C188.268 18.1077 188.65 17.9503 189.096 17.9503C189.527 17.9503 189.905 18.1077 190.229 18.4226C190.553 18.7375 190.715 19.1153 190.715 19.5561C190.715 19.853 190.638 20.1251 190.486 20.3725C190.337 20.6154 190.141 20.8111 189.899 20.9595C189.656 21.1035 189.388 21.1754 189.096 21.1754ZM197.757 21.2024C196.709 21.2024 195.803 20.9798 195.038 20.5344C194.278 20.0846 193.691 19.4594 193.277 18.6587C192.863 17.8536 192.656 16.9202 192.656 15.8587C192.656 14.7881 192.863 13.8525 193.277 13.0518C193.691 12.2467 194.278 11.6214 195.038 11.1761C195.803 10.7263 196.709 10.5014 197.757 10.5014C198.805 10.5014 199.709 10.7263 200.47 11.1761C201.234 11.6214 201.824 12.2467 202.237 13.0518C202.651 13.8525 202.858 14.7881 202.858 15.8587C202.858 16.9202 202.651 17.8536 202.237 18.6587C201.824 19.4594 201.234 20.0846 200.47 20.5344C199.709 20.9798 198.805 21.2024 197.757 21.2024ZM197.771 18.9759C198.248 18.9759 198.646 18.8409 198.965 18.571C199.284 18.2966 199.525 17.9233 199.687 17.451C199.853 16.9787 199.937 16.4412 199.937 15.8384C199.937 15.2357 199.853 14.6982 199.687 14.2259C199.525 13.7536 199.284 13.3802 198.965 13.1058C198.646 12.8314 198.248 12.6942 197.771 12.6942C197.289 12.6942 196.885 12.8314 196.556 13.1058C196.232 13.3802 195.987 13.7536 195.821 14.2259C195.659 14.6982 195.578 15.2357 195.578 15.8384C195.578 16.4412 195.659 16.9787 195.821 17.451C195.987 17.9233 196.232 18.2966 196.556 18.571C196.885 18.8409 197.289 18.9759 197.771 18.9759ZM204.727 21V10.6364H207.514V12.4446H207.622C207.811 11.8014 208.128 11.3156 208.573 10.9872C209.018 10.6544 209.531 10.4879 210.111 10.4879C210.255 10.4879 210.41 10.4969 210.577 10.5149C210.743 10.5329 210.89 10.5576 211.015 10.5891V13.1396C210.881 13.0991 210.694 13.0631 210.455 13.0316C210.217 13.0001 209.999 12.9844 209.801 12.9844C209.378 12.9844 209 13.0766 208.667 13.261C208.339 13.4409 208.078 13.6928 207.885 14.0167C207.696 14.3406 207.601 14.7139 207.601 15.1367V21H204.727ZM216.688 25.1023C215.757 25.1023 214.959 24.9741 214.293 24.7177C213.632 24.4658 213.105 24.1217 212.714 23.6854C212.323 23.2491 212.069 22.7588 211.952 22.2145L214.61 21.8569C214.691 22.0638 214.819 22.2572 214.995 22.4371C215.17 22.6171 215.402 22.761 215.69 22.869C215.982 22.9814 216.337 23.0376 216.756 23.0376C217.381 23.0376 217.896 22.8847 218.301 22.5788C218.71 22.2775 218.915 21.7714 218.915 21.0607V19.1648H218.793C218.667 19.4527 218.478 19.7248 218.226 19.9812C217.975 20.2376 217.651 20.4467 217.255 20.6087C216.859 20.7706 216.387 20.8516 215.838 20.8516C215.06 20.8516 214.351 20.6716 213.713 20.3118C213.078 19.9474 212.572 19.3919 212.195 18.6452C211.821 17.8941 211.634 16.945 211.634 15.7979C211.634 14.6239 211.826 13.6433 212.208 12.8562C212.59 12.069 213.099 11.4798 213.733 11.0884C214.372 10.6971 215.071 10.5014 215.831 10.5014C216.411 10.5014 216.897 10.6004 217.289 10.7983C217.68 10.9917 217.995 11.2346 218.233 11.527C218.476 11.8149 218.663 12.0982 218.793 12.3771H218.901V10.6364H221.755V21.1012C221.755 21.9828 221.539 22.7205 221.108 23.3143C220.676 23.908 220.077 24.3533 219.313 24.6502C218.553 24.9516 217.678 25.1023 216.688 25.1023ZM216.749 18.6925C217.212 18.6925 217.603 18.5778 217.923 18.3484C218.247 18.1145 218.494 17.7816 218.665 17.3498C218.84 16.9135 218.928 16.3917 218.928 15.7844C218.928 15.1772 218.843 14.6509 218.672 14.2056C218.501 13.7558 218.253 13.4072 217.93 13.1598C217.606 12.9124 217.212 12.7887 216.749 12.7887C216.277 12.7887 215.878 12.9169 215.555 13.1733C215.231 13.4252 214.986 13.776 214.819 14.2259C214.653 14.6757 214.57 15.1952 214.57 15.7844C214.57 16.3827 214.653 16.9 214.819 17.3363C214.99 17.7681 215.235 18.1032 215.555 18.3416C215.878 18.5755 216.277 18.6925 216.749 18.6925Z" fill="#002019"/>
<g clip-path="url(#clip0_2121_19)">
<path d="M32.5593 18.4083L25.3309 15.1217C25.3059 15.11 25.2809 15.1008 25.2559 15.0917C24.6493 14.885 23.9909 15.0375 23.5376 15.4908C23.0843 15.9442 22.9318 16.6025 23.1693 17.2833L26.4559 24.5125C26.5884 24.805 26.8776 24.995 27.1993 25.0008H27.2151C27.5301 25.0008 27.8193 24.8225 27.9609 24.54L29.5034 21.455L32.5884 19.9125C32.8759 19.7683 33.0551 19.4733 33.0493 19.1517C33.0434 18.8308 32.8534 18.5417 32.5609 18.4083H32.5593ZM23.8076 23.2992C23.6643 23.3117 23.5201 23.3208 23.3743 23.3267C22.8176 22.7758 21.3659 21.2283 20.3543 19.1667H20.9643C21.4243 19.1667 21.7976 18.7942 21.7976 18.3333C21.7976 17.8725 21.4243 17.5 20.9643 17.5H19.6893C19.4468 16.7067 19.2976 15.8667 19.2976 15C19.2976 14.1333 19.4476 13.2942 19.6909 12.5H26.4051C26.5034 12.8225 26.5868 13.1525 26.6509 13.4892C26.7376 13.9417 27.1751 14.24 27.6251 14.1517C28.0768 14.0658 28.3734 13.6292 28.2876 13.1775C28.2443 12.9483 28.1926 12.7225 28.1351 12.5H30.9626C30.9734 12.5 30.9851 12.5 30.9959 12.5C31.2451 13.29 31.3793 14.13 31.3793 15.0008C31.3793 15.2567 31.3676 15.5092 31.3451 15.7592C31.3043 16.2175 31.6418 16.6225 32.1001 16.6642C32.5601 16.7092 32.9643 16.3675 33.0051 15.9092C33.0318 15.61 33.0459 15.3067 33.0459 15.0008C33.0476 9.48583 28.5618 5 23.0476 5C17.5334 5 13.0476 9.48583 13.0476 15C13.0476 20.5142 17.5334 25 23.0468 25C23.3526 25 23.6551 24.9858 23.9534 24.9592C24.4118 24.9183 24.7509 24.5142 24.7101 24.055C24.6693 23.5975 24.2668 23.2592 23.8076 23.2992ZM17.9576 17.5H15.1309C15.1201 17.5 15.1093 17.5 15.0976 17.5C14.8484 16.71 14.7143 15.87 14.7143 14.9992C14.7143 14.1283 14.8484 13.2883 15.0976 12.4983C15.1084 12.4983 15.1193 12.4983 15.1309 12.4983H17.9576C17.7534 13.2942 17.6309 14.1308 17.6309 14.9983C17.6309 15.8658 17.7526 16.7025 17.9576 17.4983V17.5ZM20.3584 10.8333C21.2093 9.1025 22.3709 7.73 23.0493 7.01C23.7284 7.72917 24.8901 9.09917 25.7409 10.8333H20.3584ZM30.2626 10.8333H27.5726C26.9134 9.26167 25.9993 7.92667 25.2126 6.9525C27.3618 7.53167 29.1701 8.95 30.2626 10.8333ZM20.8809 6.95333C20.0943 7.9275 19.1793 9.2625 18.5209 10.8333H15.8326C16.9243 8.95 18.7318 7.53167 20.8809 6.95333ZM15.8326 19.1667H18.5209C19.1793 20.7383 20.0943 22.0725 20.8809 23.0467C18.7326 22.4675 16.9251 21.0492 15.8326 19.1667Z" fill="#002019"/>
</g>
<defs>
<clipPath id="clip0_2121_19">
<rect width="20" height="20" fill="white" transform="translate(13.0476 5)"/>
</clipPath>
</defs>
</svg>
